<?xml version="1.0" encoding="UTF-8"?>
<svg fill="#F08281" width="100pt" height="100pt" version="1.1" viewBox="0 0 100 100" xmlns="http://www.w3.org/2000/svg">
 <path d="m64.582 39.84-2.1328 8.5391c-0.066407 0.28906-0.19531 0.5625-0.37109 0.79688l-12.496 16.656c-0.39062 0.52734-1.0078 0.83594-1.6641 0.83594h-10.566c-1.0117 7.0664-7.0859 12.5-14.434 12.5-8.0547 0-14.586-6.5312-14.586-14.586 0-5.5547 3.1094-10.387 7.6797-12.848l-7.3281-10.996c-0.92188-1.3828 0.070312-3.2383 1.7344-3.2383h11.258c3.8008 0 7.582 0.61328 11.309 1.8555l-0.070313-0.023438c3.7422 1.2461 7.8711 0.26953 10.664-2.5234l2.1484-2.1484c3.5156-3.5156 8.2891-5.4922 13.262-5.4922h2.2227l-2.082-4.168h-11.211c-1.1523 0-2.0859-0.93359-2.0859-2.082 0-1.1523 0.93359-2.0859 2.0859-2.0859h12.5c0.78906 0 1.5078 0.44531 1.8633 1.1523l2.3008 4.6055c1.1055-0.98828 2.5664-1.5898 4.168-1.5898h4.168c1.1484 0 2.082 0.93359 2.082 2.082v8.3359c0 1.1484-0.93359 2.082-2.082 2.082h-4.168c-0.15625 0-0.30859-0.003906-0.46094-0.015625l1.1133 4.4492c6.1328-0.95312 12.328 0.62109 17.262 4.3164 0.92188 0.6875 1.1094 1.9961 0.42188 2.9141-0.69141 0.92188-1.9961 1.1094-2.918 0.42188-3.9414-2.9531-8.8555-4.25-13.75-3.5898l1.0195 4.0781c0.48438-0.050781 0.98047-0.074219 1.4805-0.074219 8.0547 0 14.582 6.5273 14.582 14.582 0 8.0547-6.5273 14.586-14.582 14.586-8.0547 0-14.586-6.5312-14.586-14.586 0-6.0977 3.7461-11.324 9.0625-13.5zm-27.23 22.66h9.5234l8.6523-11.539c-7.5742 1.332-15.215 2.25-22.887 2.75 2.4922 2.2344 4.2148 5.3125 4.7109 8.7891zm21.363-16.367 3.1992-12.801h-2.9258c-3.8672 0-7.582 1.5391-10.316 4.2734l-2.1484 2.1523c-3.9062 3.9062-9.6875 5.2734-15.043 3.4844l0.074219 0.027343c-3.1875-1.0625-6.5234-1.6016-9.8789-1.6016h-7.3672l5.5547 8.3281c13.051-0.070313 26.066-1.3633 38.852-3.8633zm-25.59 20.535h-10.207c-1.1523 0-2.0859-0.93359-2.0859-2.0859 0-1.1484 0.93359-2.082 2.0859-2.082h10.207c-0.96484-4.7539-5.168-8.332-10.207-8.332-5.7539 0-10.418 4.6602-10.418 10.414 0 5.7539 4.6641 10.418 10.418 10.418 5.0391 0 9.2422-3.5781 10.207-8.332zm33.898-34.25c0.375 0.55469 1.0078 0.91406 1.7266 0.91406h2.082v-4.1641h-2.082c-1.082 0-1.9648 0.81641-2.0742 1.8672zm1.3945 22.766c-3.5 1.6797-5.918 5.2578-5.918 9.3984 0 5.7539 4.6641 10.418 10.418 10.418 5.7539 0 10.414-4.6641 10.414-10.418 0-5.7539-4.6602-10.414-10.414-10.414-0.15234 0-0.30469 0.003906-0.45703 0.007812l2.4766 9.9023c0.28125 1.1172-0.39844 2.2461-1.5156 2.5273-1.1172 0.27734-2.2461-0.40234-2.5273-1.5156z"/>
</svg>
