<?xml version="1.0" encoding="UTF-8"?>
<svg fill="#F08281" width="100pt" height="100pt" version="1.1" viewBox="0 0 100 100" xmlns="http://www.w3.org/2000/svg">
 <g>
  <path d="m91.398 53.801c0-0.5-0.10156-0.89844-0.10156-1.1016-0.10156-2.1992-0.60156-3-1.1992-3.8008-0.19922-0.30078-0.30078-0.39844-0.39844-0.80078-0.30078-0.80078-1-1.8008-2.1992-3.3008-0.39844-0.60156-0.89844-1.1992-1.3984-1.8984h1.6992c2 0 2.6992 0 3.3984-0.60156 1-0.89844 1.1016-3.1992 1.1016-3.8984 0-1.3984-0.39844-2.3984-1.1016-3-1.1016-0.89844-5.3984-2.5-7.1016-2.5-1.1992 0-1.8008 0.60156-2.1016 1-0.10156 0.10156-0.10156 0.19922-0.19922 0.39844-1.1016-1.8984-2.5-4.1016-3.8984-6.3008-4.8008-7.1016-6.1992-7.3984-6.8984-7.6016-1.8984-0.39844-15.5-0.80078-19.898-0.80078h-2.1992c-4.3984 0-17.898 0.39844-19.898 0.80078-2.6992 0.60156-8.1016 9.1016-10.801 14-0.10156-0.10156-0.10156-0.30078-0.19922-0.39844-0.30078-0.39844-0.89844-1-2.1016-1-1.6992 0-6 1.6016-7.1016 2.5-0.69922 0.60156-1.1016 1.6016-1.1016 3 0 0.69922 0 3 1.1016 3.8984 0.60156 0.60156 1.3984 0.60156 3.3984 0.60156h1.6992c-0.5 0.69922-0.89844 1.3008-1.3984 1.8984-1.1992 1.6016-1.8984 2.5-2.1992 3.3008-0.10156 0.39844-0.30078 0.5-0.39844 0.80078-0.60156 0.80078-1 1.6016-1.1992 3.8008 0 0.19922 0 0.60156-0.10156 1.1016-0.89844 11.801-0.5 17.102 0.69922 19.5 0 0.10156-0.10156 0.19922-0.10156 0.39844v3.6016c0 1.6992 1.3984 3.1992 3.1992 3.1992h10.5c1.6992 0 3.1992-1.3984 3.1992-3.1992v-1.6992c6.8984 0.10156 15.5 0.19922 24 0.19922s17-0.10156 24-0.19922v1.6992c0 1.6992 1.3984 3.1992 3.1992 3.1992h10.5c1.6992 0 3.1992-1.3984 3.1992-3.1992v-3.6016c0-0.10156 0-0.30078-0.10156-0.39844 1-2.3984 1.3984-7.6992 0.5-19.602zm-67.398 23.5c0 0.60156-0.5 1.1992-1.1992 1.1992h-10.5c-0.60156 0-1.1992-0.5-1.1992-1.1992v-2.1016c0.19922 0 0.30078 0.10156 0.5 0.10156 0.10156 0 5.1016 0.10156 12.398 0.19922zm1.3984-3.6992c-0.10156 0-0.19922-0.10156-0.30078-0.10156-0.10156 0-0.19922 0-0.30078 0.10156-7.6992-0.10156-13-0.19922-13-0.19922-2.7969-1.7031-1.1953-18.402-1.0977-20.602 0.19922-2.8008 0.80078-2.3008 1.5-4 0.5-1.3008 3.6992-4.6992 5.3984-8 0 0-3.1992 0.10156-5.3984 0.10156-1.1016 0-2 0-2.1016-0.10156-0.30078-0.30078-0.80078-3.1992 0-3.8984 0.69922-0.5 4.5-2 5.8008-2 0.19922 0 0.39844 0 0.39844 0.10156 0.39844 0.60156 0.19922 3.8984 0.60156 4.1016 0.19922 0.10156 0.80078 0.10156 1.1992 0.19922 0.10156-0.39844 0.19922-0.69922 0.30078-1.1016 1.5-3.6016 9.1016-15.5 11-15.898 1.5-0.30078 14.301-0.80078 19.5-0.80078h2.1992c5.1016 0 17.898 0.5 19.5 0.80078 1.8984 0.39844 9.6016 12.301 11 15.898 0.10156 0.30078 0.19922 0.69922 0.30078 1.1016 0.5 0 1-0.10156 1.1992-0.19922 0.39844-0.19922 0.19922-3.3984 0.60156-4.1016 0.10156-0.10156 0.19922-0.10156 0.39844-0.10156 1.3008 0 5.1992 1.5 5.8008 2 0.80078 0.60156 0.30078 3.6016 0 3.8984-0.10156 0.10156-1 0.10156-2.1016 0.10156-2.1992 0-5.3984-0.10156-5.3984-0.10156 1.6992 3.1992 4.8984 6.6992 5.3984 8 0.60156 1.6992 1.3008 1.3008 1.5 4 0.10156 2.1016 1.6992 18.898-1.1016 20.602 0 0-5.3008 0.10156-13 0.19922-0.10156 0-0.19922-0.10156-0.30078-0.10156-0.10156 0-0.19922 0-0.30078 0.10156-7 0.10156-15.898 0.19922-24.602 0.19922-8.8008 0-17.602-0.10156-24.602-0.19922zm62.301 4.8984h-10.598c-0.60156 0-1.1992-0.5-1.1992-1.1992v-1.8008c7.3008-0.10156 12.301-0.19922 12.398-0.19922 0.19922 0 0.30078 0 0.5-0.10156v2.1016c0 0.69922-0.5 1.1992-1.1016 1.1992z"/>
  <path d="m63.301 52.301h-26.602c-2.1992 0-3.1992 4.1016-3.1992 5.3008v0.19922l2.1016 10.102c0.10156 1.6992 1.5 3 3.1016 3h22.199c1.6992 0 3.1016-1.3984 3.1016-3l2.1016-10.102v-0.19922c0.30078-1.3008-0.69922-5.3008-2.8008-5.3008zm-1 15.301v0.19922c0 0.60156-0.5 1.1992-1.1992 1.1992h-22.203c-0.60156 0-1.1992-0.5-1.1992-1.1992v-0.19922l-2.1016-10.102c0-1 0.80078-2.8984 1.1992-3.1992h26.398c0.5 0.30078 1.1992 2.1992 1.1992 3.1992l-2.1016 10.102zm-30.199 0.29688c0-1.6016-1.3008-3-3-3h-12.703c-1.6016 0-3 1.3008-3 3v0.39844c0 0.69922 0 1.5 0.5 2.1016 0.30078 0.30078 0.80078 0.5 1.3984 0.5h14.801c0.60156 0 1.1016-0.19922 1.3984-0.5 0.60156-0.60156 0.5-1.3984 0.5-2.1016l0.10156-0.39844zm-2 1h-14.703v-0.89844c0-0.5 0.39844-1 1-1h12.699c0.5 0 1 0.39844 1 1v0.89844zm54.598 2c0.60156 0 1.1016-0.19922 1.3984-0.5 0.60156-0.60156 0.5-1.3984 0.5-2.1016v-0.39844c0-1.6016-1.3008-3-3-3h-12.699c-1.6016 0-3 1.3008-3 3v0.39844c0 0.69922 0 1.5 0.5 2.1016 0.30078 0.30078 0.80078 0.5 1.3984 0.5h14.898zm-14.801-2.5v-0.39844c0-0.5 0.39844-1 1-1h12.699c0.5 0 1 0.39844 1 1v0.89844h-14.699zm-53.398-12c0.80078 0.39844 6.6992 1.6992 10.5 1.6992 1.1016 0 1.8984-0.10156 2.5-0.30078 1.1016-0.5 1.6992-1.1016 1.8984-1.8984 0.30078-1.3984-0.89844-2.6016-1.8008-3.6016-0.19922-0.19922-0.39844-0.5-0.60156-0.60156-1.5-1.8008-12.5-3.1016-13-3.1992-1.1016-0.10156-2 0.39844-2.3008 1.3984-0.5 1.8984 1.5 5.8984 2.8008 6.5zm-0.80078-6h0.10156c4.6016 0.5 10.898 1.6992 11.602 2.3984 0.19922 0.19922 0.39844 0.5 0.69922 0.80078 0.39844 0.39844 1.3984 1.3984 1.3008 1.8008 0 0.10156-0.19922 0.30078-0.69922 0.5-1.8008 0.80078-10.398-0.80078-11.398-1.3008-0.60156-0.5-1.8984-3.3984-1.6016-4.1992zm55.301 1.2031l-0.60156 0.60156c-0.89844 1-2.1016 2.1992-1.8008 3.6016 0.19922 0.80078 0.80078 1.5 1.8984 1.8984 0.60156 0.19922 1.5 0.30078 2.5 0.30078 3.8008 0 9.6992-1.3008 10.5-1.6992 1.1992-0.60156 3.3008-4.6016 2.6992-6.5-0.30078-1-1.1016-1.5-2.3008-1.3984-0.39844 0.10156-11.398 1.3984-12.898 3.1992zm1.6016 1.3008c0.80078-0.69922 7-1.8984 11.699-2.3984h0.10156c0.19922 0.80078-1 3.6992-1.6016 4.1992-1.1016 0.5-9.6016 2.1016-11.398 1.3008-0.5-0.19922-0.69922-0.39844-0.69922-0.5-0.10156-0.39844 0.89844-1.3008 1.3008-1.8008 0.10156-0.39844 0.39844-0.60156 0.60156-0.80078zm-48.902-11.402h52.301c2.1016-0.19922 3.3984-0.60156 3.8984-1.3984 0.19922-0.39844 0.19922-0.80078 0-1.1992l-0.19922-0.5c-7-14.602-9.1992-15.199-10.102-15.301-0.69922-0.19922-5.3984-1.1016-19.699-1.1016-14.199 0-18.801 0.89844-19.5 1.1016-1 0.10156-3.1992 0.69922-10.199 15.301l-0.19922 0.39844c-0.19922 0.39844-0.19922 0.89844 0 1.1992 0.30078 0.80078 1.6016 1.3008 3.6992 1.5zm6.8008-16.398h0.19922s4.1016-1 19.102-1 19.301 1 19.301 1h0.19922c0.19922 0 2.1992 0.89844 8.5 14-0.5 0.10156-1.1992 0.30078-1.8984 0.30078l-52.102-0.003906c-0.69922-0.10156-1.3984-0.19922-1.8008-0.30078 6.3984-13.301 8.3984-14 8.5-14z"/>
 </g>
</svg>
