<?xml version="1.0" encoding="UTF-8"?>
<svg fill="#F08281" width="100pt" height="100pt" version="1.1" viewBox="0 0 100 100" xmlns="http://www.w3.org/2000/svg">
 <g>
  <path d="m82.852 46.883h-2.4844c-4.6328-8.5-13.582-14.602-24.117-16.082 1.3516-1.5352 2.5156-3.4648 3.2344-5.582 1.2344-3.6484 0.98438-7.1992-0.69922-9.9844-1.4844-2.4336-3.6484-4.0664-6.2852-4.7148-2.7852-0.68359-5.4648-0.10156-6.8984 0.76562-1.7344 1.0664-2.9492 2.3828-3.582 3.9336-0.98438 2.3828-0.91797 6.1172 0.14844 8.3164 1.3164 2.6992 3.5664 3.3516 5.6016 3.6484 2.3984 0.33203 4.668-0.76562 6.1016-2.9648 1.25-1.918 1.4844-4.1484 0.60156-5.5664-1.4336-2.2852-3.0352-2.6836-4.1172-2.6484-1.4844 0.066406-2.6172 1.0508-3.082 1.9844-0.41797 0.81641-0.082032 1.832 0.73437 2.25 0.81641 0.41797 1.8164 0.082031 2.2344-0.73438 0.035156-0.050781 0.18359-0.18359 0.28516-0.18359 0.14844 0 0.58203 0.23438 1.1172 1.082 0.10156 0.21484 0.015625 1.2344-0.73438 2.2344-0.41797 0.55078-1.3164 1.4336-2.6484 1.2344-1.7852-0.25-2.5156-0.68359-3.0664-1.8008-0.66797-1.3516-0.69922-4.0664-0.066406-5.582 0.36719-0.88281 1.1172-1.6836 2.2344-2.3672 0.64844-0.39844 2.418-0.85156 4.3672-0.36719 1.7852 0.43359 3.1992 1.5156 4.2344 3.1992 1.582 2.6016 0.91797 5.6172 0.39844 7.1836-1.082 3.1992-3.2148 5.5156-4.8672 6.2852-0.082032 0-0.14844-0.015625-0.23438-0.015625-12.734 0-23.816 6.5664-29.168 16.465h-2.4648c-3.5 0-6.4336 1.3984-8.5 4.0664-1.8125 2.2773-2.7969 5.3281-2.7969 8.5625 0 6.2656 3.8672 12.617 11.25 12.617h1.8828c5.2148 10.766 16.766 17.668 29.75 17.668s24.535-6.8984 29.75-17.668h1.8828c6.0508 0 8.8164-6.5352 8.8164-12.617 0.003907-6.082-2.7656-12.617-8.8125-12.617zm3.9141 19.301c-1 1.7148-2.3164 2.582-3.918 2.582h-2.9141c-0.066406 0-0.13281 0.035156-0.21484 0.050781-0.13281 0.015625-0.28516 0.035156-0.41797 0.082032-0.10156 0.050781-0.18359 0.11719-0.28516 0.18359-0.082031 0.050781-0.18359 0.10156-0.25 0.16797-0.10156 0.10156-0.16797 0.21484-0.23438 0.33203-0.050781 0.066407-0.10156 0.11719-0.13281 0.19922-4.4336 10.133-15.117 16.668-27.184 16.668s-22.75-6.5508-27.184-16.668c-0.035156-0.082031-0.10156-0.13281-0.14844-0.19922-0.066406-0.11719-0.13281-0.21484-0.21484-0.31641-0.082031-0.082031-0.18359-0.13281-0.28516-0.18359-0.082031-0.050781-0.16797-0.11719-0.25-0.16797-0.13281-0.050781-0.28516-0.066406-0.43359-0.082031-0.066407 0-0.13281-0.035156-0.19922-0.035156h-2.9141c-5.4375-0.03125-7.918-4.832-7.918-9.2969 0-2.4648 0.75-4.832 2.0508-6.5 1.4336-1.8516 3.3984-2.7852 5.8672-2.7852h0.91797c-0.63281 1.668-1.1172 3.3984-1.4336 5.1992-0.14844 0.89844 0.44922 1.7656 1.3516 1.9336 0.91797 0.14844 1.7656-0.44922 1.9336-1.3516 0.41797-2.3828 1.168-4.6484 2.2148-6.75 0.015626-0.015625 0.015626-0.050782 0.035157-0.066406 4.6172-9.2344 14.852-15.418 26.617-15.418 14.867 0 27.352 10.035 29.035 23.316 0.10156 0.85156 0.81641 1.4492 1.6484 1.4492 0.066406 0 0.13281 0 0.21484-0.015625 0.91797-0.11719 1.5664-0.94922 1.4492-1.8672-0.28516-2.2344-0.86719-4.3828-1.6484-6.4336h0.94922c3.6016 0 5.4844 4.668 5.4844 9.2852-0.023438 2.5391-0.58984 4.9688-1.5898 6.6875z"/>
  <path d="m67.434 51.117c-3.6328-1.8516-7.9648-1.8516-11.582 0-0.81641 0.41797-1.1484 1.418-0.73437 2.25 0.41797 0.81641 1.418 1.1484 2.25 0.73437 2.6836-1.3672 5.8828-1.3672 8.5664 0 0.25 0.11719 0.5 0.18359 0.75 0.18359 0.60156 0 1.1992-0.33203 1.4844-0.91797 0.41406-0.83203 0.097656-1.832-0.73438-2.25z"/>
  <path d="m45.816 54.266c0.60156 0 1.1992-0.33203 1.4844-0.91797 0.41797-0.81641 0.082031-1.8164-0.73438-2.25-3.6328-1.8516-7.9648-1.8516-11.582 0-0.81641 0.41797-1.1484 1.418-0.73438 2.25 0.41797 0.81641 1.418 1.1484 2.25 0.73438 2.6836-1.3672 5.8828-1.3672 8.5664 0 0.25 0.13281 0.5 0.18359 0.75 0.18359z"/>
  <path d="m58.035 69.801c-4.2656 2.168-9.3516 2.168-13.617 0-0.81641-0.41797-1.8164-0.10156-2.25 0.73438-0.41797 0.81641-0.10156 1.8164 0.73438 2.25 2.6016 1.332 5.4648 1.9844 8.3164 1.9844s5.7148-0.66797 8.3164-1.9844c0.81641-0.41797 1.1484-1.418 0.73438-2.25-0.41797-0.82031-1.418-1.1523-2.2344-0.73438z"/>
 </g>
</svg>
