<?xml version="1.0" encoding="UTF-8"?>
<svg fill="#F08281" width="100pt" height="100pt" version="1.1" viewBox="0 0 100 100" xmlns="http://www.w3.org/2000/svg">
 <g>
  <path d="m96.875 51.562c-0.003906-3.1016-1.8438-5.9102-4.6875-7.1484v-11.602c-0.007812-7.7617-6.3008-14.055-14.062-14.062h-3.125c-3.1523 0-6.2148 1.0664-8.6875 3.0234l0.875-9.1172h-0.023438c0-0.050781 0.03125-0.09375 0.03125-0.14453v-9.3867c0-0.41406-0.16406-0.8125-0.45703-1.1055s-0.69141-0.45703-1.1055-0.45703h-14.445c-4.2148 0-8.207 1.8906-10.875 5.1484-2.6719 3.2578-3.7422 7.5391-2.9141 11.672l0.12109 0.61328 1.543 12.344v12.48c-1.6094 0.14844-3.1875 0.52344-4.6875 1.1172v-24.625c-0.007812-7.7617-6.3008-14.055-14.062-14.062h-3.125c-7.7617 0.007812-14.055 6.3008-14.062 14.062v50c0 0.41406 0.16406 0.8125 0.45703 1.1055s0.69141 0.45703 1.1055 0.45703v17.188c0.003906 4.3125 3.5 7.8086 7.8125 7.8125h35.938c2.5898 0 4.6875-2.0977 4.6875-4.6875v-6.25c0-2.5898-2.0977-4.6875-4.6875-4.6875h-4.6875c-1.9844 0.003906-3.7539 1.2539-4.4219 3.125h-12.766v-23.438c0.007812-7.7617 6.3008-14.055 14.062-14.062h35.938v9.375h-7.8125c-0.86328 0-1.5625 0.69922-1.5625 1.5625v11.066l-16.328-9.4258c0.050781-0.28516 0.078125-0.57031 0.078125-0.85938-0.003906-1.6758-0.89453-3.2227-2.3438-4.0625l-4.0625-2.3438c-2.2461-1.2891-5.1094-0.52344-6.4062 1.7188l-3.125 5.4102c-1.2734 2.2461-0.50781 5.1016 1.7188 6.4062l28.012 16.16c0.76172 0.4375 1.5938 0.73828 2.457 0.89844v14.094h3.125v-14.137c0.78516-0.16797 1.5391-0.45703 2.2344-0.85547l7.5859-4.375c0.46875 0.62891 1.332 0.80469 2.0078 0.41016l10.824-6.25h0.003906c0.26953-0.17188 0.53125-0.35938 0.78125-0.5625v25.77h3.125v-31.25h-0.054688c0.31641-3.0664-1.2383-6.0195-3.9414-7.5 2.4727-1.25 4.0195-3.793 3.9961-6.5625zm-10.938-10.938h1.5625c0.86328 0 1.5625 0.69922 1.5625 1.5625s-0.69922 1.5625-1.5625 1.5625h-1.5625zm-10.938-18.75h3.125c6.0391 0.007812 10.93 4.8984 10.938 10.938v4.9766c-0.5-0.1875-1.0273-0.28516-1.5625-0.28906h-2.375l-5.7812-7.2227c-0.035156-0.046875-0.074219-0.089844-0.11719-0.13281-0.29297-0.29297-0.6875-0.45703-1.1016-0.45703-5.1914-0.015625-10.203 1.9023-14.062 5.375v-2.25c0.007812-6.0391 4.8984-10.93 10.938-10.938zm-14.062 21.875h-7.8125v-2.8242c2.6328 0.80078 5.4883 0.41016 7.8125-1.0625zm-18.211-35.059c2.0742-2.5391 5.1797-4.0078 8.4609-4.0039h12.875v6.25h-4.6875c-3.7109 0.003906-6.9102 2.6133-7.6562 6.25h-11.359c-0.44531-3.0391 0.41797-6.125 2.3672-8.4961zm-1.8945 11.621h4.7695c-0.1875 0.5-0.28516 1.0273-0.28906 1.5625 0 2.5898 2.0977 4.6875 4.6875 4.6875h1.5625v1.5625h-9.7539zm9.168 0h1.5625v3.125h-1.5625c-0.86328 0-1.5625-0.69922-1.5625-1.5625s0.69922-1.5625 1.5625-1.5625zm-25 26.562v4.3203l-3.125 6.25-3.125-6.25v-4.3203zm-1.5625-3.125h-3.125c-4.3125-0.003906-7.8086-3.5-7.8125-7.8125v-8.2344c3.1602-1.2383 5.4648-4.0039 6.1055-7.3359 4.9414 0.37891 9.5039 2.7969 12.59 6.6758l0.054688 8.8945c-0.003906 4.3125-3.5 7.8086-7.8125 7.8125zm-14.062-10.938h-1.5625c-0.86328 0-1.5625-0.69922-1.5625-1.5625s0.69922-1.5625 1.5625-1.5625h1.5625zm7.8125-23.438h3.125c6.0391 0.007812 10.93 4.8984 10.938 10.938v2.25c-3.8594-3.4727-8.8711-5.3906-14.062-5.375-0.86328 0-1.5625 0.69922-1.5625 1.5625-0.070312 3.0039-2.1484 5.5859-5.0664 6.2969-0.69531 0.17188-1.1836 0.79688-1.1836 1.5156h-1.5625c-0.53516 0.003906-1.0625 0.10156-1.5625 0.28906v-6.5391c0.007812-6.0391 4.8984-10.93 10.938-10.938zm-10.938 26.273c0.5 0.1875 1.0273 0.28516 1.5625 0.28906h1.5625c0.003906 4.2188 2.4375 8.0586 6.25 9.8672v4.1953h-1.5625c-2.9414 0-5.7617 1.1875-7.8125 3.2969zm34.375 51.852c0.41406 0 0.8125-0.16406 1.1055-0.45703s0.45703-0.69141 0.45703-1.1055c0-0.86328 0.69922-1.5625 1.5625-1.5625h4.6875c0.41406 0 0.8125 0.16406 1.1055 0.45703s0.45703 0.69141 0.45703 1.1055v6.25c0 0.41406-0.16406 0.8125-0.45703 1.1055s-0.69141 0.45703-1.1055 0.45703h-35.938c-2.5898 0-4.6875-2.0977-4.6875-4.6875v-17.188h6.25v12.5c0 0.82812 0.32812 1.625 0.91406 2.2109 0.58594 0.58594 1.3828 0.91406 2.2109 0.91406zm-23.438-3.125v-14.062c0-0.41406-0.16406-0.8125-0.45703-1.1055s-0.69141-0.45703-1.1055-0.45703h-9.375v-7.8125c0.003906-4.3125 3.5-7.8086 7.8125-7.8125h2.1602l2.8594 5.7148h-0.003906c0.39062 0.77734 1.0859 1.3594 1.918 1.6055 0.83594 0.24219 1.7383 0.125 2.4805-0.32422-0.011718 0.27344-0.039062 0.53906-0.039062 0.81641v23.438zm10.938-35.195v-3.375c1.1641-0.55469 2.2227-1.3086 3.125-2.2266v2.9688c-1.1406 0.75-2.1914 1.6328-3.125 2.6328zm14.062-5.4297v-12.5h10.938c0.41406 0 0.8125-0.16406 1.1055-0.45703s0.45703-0.69141 0.45703-1.1055v-10.938c0-2.5898 2.0977-4.6875 4.6875-4.6875h4.5312l-1.1211 11.805c-1.1133 1.957-1.7422 4.1562-1.8242 6.4062-0.09375-0.011719-0.1875-0.015626-0.28125-0.007813-0.64453 0.10547-1.3008-0.10547-1.7656-0.5625-0.61328-0.59375-1.5859-0.58594-2.1875 0.015625-0.60547 0.60547-0.61328 1.5781-0.019531 2.1914 0.96484 0.96484 2.2773 1.5078 3.6406 1.5078 0.19922-0.003907 0.39453-0.019531 0.58984-0.042969v0.3125c-1.9375 2.6055-5.5391 3.3047-8.3125 1.6133l-0.21875-0.14062c-0.47656-0.30859-1.0898-0.33203-1.5898-0.058594-0.5 0.27344-0.81641 0.79688-0.81641 1.3672v5.2812zm21.875 0v-4.1406l0.054688-0.066406v0.003906c3.2305-4.0664 8.0742-6.5195 13.266-6.7188l5.4297 6.7812v4.1406zm14.062 15.625h4.8828l-8.6758 5.0078h-0.003906c-0.74609 0.43359-1 1.3867-0.57031 2.1367l0.10156 0.17578-3.5469 2.0391v-9.3594zm-7.1445 19.805c-1.4492 0.83984-3.2383 0.83984-4.6875 0l-28.012-16.152c-0.36328-0.20703-0.62891-0.55078-0.73828-0.95703-0.10938-0.40234-0.050781-0.83594 0.16406-1.1953l3.125-5.4102c0.43359-0.74219 1.3828-0.99609 2.1289-0.56641l4.0625 2.3438c0.48437 0.28125 0.78125 0.79297 0.78125 1.3516-0.003907 0.28125-0.082032 0.55469-0.22266 0.79688-0.41797 0.74609-0.16016 1.6914 0.58203 2.1172l18.109 10.453c1.4492 0.83984 3.2344 0.83984 4.6875 0l4.4531-2.5625 3.125 5.4102zm20.426-10.219-9.4688 5.4688-4.6875-8.125 9.4688-5.4688c2.2422-1.2969 5.1133-0.52734 6.4062 1.7188 1.293 2.2422 0.52344 5.1094-1.7188 6.4062zm-3.9062-12.711h-7.8125v-9.375h9.375c2.5898 0 4.6875 2.0977 4.6875 4.6875 0 2.8477-2.4531 4.6875-6.25 4.6875z"/>
  <path d="m58.266 22.969c0.30078 0.28516 0.69531 0.44531 1.1094 0.45312 0.20312-0.003906 0.40625-0.046875 0.59375-0.125 0.43359-0.17969 0.76562-0.54297 0.90234-0.99219 0.13672-0.44922 0.0625-0.93359-0.19531-1.3242-0.26172-0.39062-0.68359-0.64062-1.1523-0.6875-0.46484-0.042969-0.92969 0.125-1.2578 0.45703-0.13672 0.15234-0.25 0.32422-0.32812 0.51562-0.16797 0.375-0.16797 0.80859 0 1.1875 0.074219 0.19141 0.1875 0.36719 0.32812 0.51562z"/>
  <path d="m29.688 29.668c0.003906-0.63281-0.37891-1.207-0.96484-1.4531-0.58594-0.24219-1.2617-0.10547-1.707 0.34375-0.13672 0.15234-0.25 0.32422-0.32812 0.51562-0.16797 0.37891-0.16797 0.80859 0 1.1875 0.22266 0.59375 0.80078 0.98438 1.4375 0.96875 0.20312-0.003907 0.40625-0.046875 0.59375-0.125 0.59766-0.22266 0.98438-0.80078 0.96875-1.4375z"/>
  <path d="m20.312 29.668c0.003906-0.63281-0.37891-1.207-0.96484-1.4531-0.58594-0.24219-1.2617-0.10547-1.707 0.34375-0.13672 0.15234-0.25 0.32422-0.32812 0.51562-0.16797 0.37891-0.16797 0.80859 0 1.1875 0.22266 0.59375 0.80078 0.98438 1.4375 0.96875 0.20312-0.003907 0.40625-0.046875 0.59375-0.125 0.59766-0.22266 0.98438-0.80078 0.96875-1.4375z"/>
  <path d="m78 40.031c-0.078125-0.1875-0.19141-0.36328-0.32812-0.51562-0.61328-0.61328-1.6055-0.61328-2.2188 0s-0.61328 1.6055 0 2.2188c0.14844 0.14062 0.32422 0.25391 0.51562 0.32812 0.1875 0.078125 0.39062 0.12109 0.59375 0.125 0.41406-0.007812 0.80859-0.16797 1.1094-0.45312 0.14062-0.14844 0.25391-0.32422 0.32812-0.51562 0.16797-0.37891 0.16797-0.80859 0-1.1875z"/>
  <path d="m68.297 39.516c-0.61328-0.61328-1.6055-0.61328-2.2188 0s-0.61328 1.6055 0 2.2188c0.14844 0.14062 0.32422 0.25391 0.51562 0.32812 0.1875 0.078125 0.39062 0.12109 0.59375 0.125 0.41406-0.007812 0.80859-0.16797 1.1094-0.45312 0.14062-0.14844 0.25391-0.32422 0.32812-0.51562 0.16797-0.37891 0.16797-0.80859 0-1.1875-0.078125-0.1875-0.19141-0.36328-0.32812-0.51562z"/>
  <path d="m18.918 37.629c-0.1875 0.37109-0.21875 0.80078-0.085938 1.1953 0.13281 0.39062 0.41406 0.71875 0.78516 0.90234 2.4062 1.1992 5.2344 1.1992 7.6445 0 0.76953-0.38672 1.082-1.3242 0.69922-2.0977-0.38672-0.76953-1.3281-1.082-2.0977-0.69922-1.5273 0.75781-3.3203 0.75781-4.8438 0-0.37109-0.18359-0.80078-0.21875-1.1953-0.085938s-0.72266 0.41406-0.90625 0.78516z"/>
 </g>
</svg>
