<?xml version="1.0" encoding="UTF-8"?>
<svg fill="#F08281" width="100pt" height="100pt" version="1.1" viewBox="0 0 100 100" xmlns="http://www.w3.org/2000/svg">
 <g>
  <path d="m20.898 95 12.703-11.699 31.602 1.8008h-0.003906c2.1211 0.11719 4.2031-0.60156 5.8008-2l21.102-18.102c2.8594-2.4922 3.1719-6.8242 0.69922-9.6992h-0.10156c-2.5312-2.9141-6.9297-3.2695-9.8984-0.80078l-16.199 13.5-14.898 0.80078-2.1016-3.3984 11-2.3008c3.5352-0.70703 5.9336-4.0195 5.5-7.6016v-0.19922c-0.51562-3.5898-3.6836-6.1914-7.3008-6l-23.402 1.5977c-1.707 0.058593-3.3516 0.65234-4.6992 1.7031l-25.199 20.098zm12.203-39.199c0.71094-0.5625 1.5898-0.87891 2.5-0.90234l23.5-1.5c1.5312-0.11719 2.8906 0.97656 3.0977 2.5 0.24609 1.5391-0.76953 3-2.3008 3.3008l-16.699 3.4023 6.3008 10.301 18.602-1 0.5-0.39844 16.801-14-0.003906-0.003906c0.61719-0.53125 1.4258-0.78906 2.2383-0.71484 0.80859 0.078125 1.5547 0.48047 2.0625 1.1133h0.10156c0.50391 0.58594 0.75781 1.3438 0.70312 2.1133-0.058594 0.76953-0.41797 1.4844-1.0039 1.9883l-21 18.199c-0.82422 0.72266-1.9062 1.082-3 1l-33.301-2-10.598 9.6992-10.703-15.398z"/>
  <path d="m24.398 29.102v12h17.902v4.1016l26.699-0.003906v-4.0977h18v-12c0.027344-3.5664-1.5078-6.9648-4.1992-9.3008 1.0234-2.3242 1.0625-4.9609 0.11328-7.3125-0.95312-2.3555-2.8164-4.2227-5.1641-5.1836-2.3516-0.95703-4.9883-0.92578-7.3125 0.089843-2.3281 1.0156-4.1445 2.9297-5.0391 5.3047-0.9375-4.6094-4.9922-7.918-9.6992-7.918-4.7031 0-8.7578 3.3086-9.6992 7.918-0.89453-2.375-2.7109-4.2891-5.0352-5.3047-2.3281-1.0156-4.9648-1.0469-7.3125-0.089843-2.3516 0.96094-4.2148 2.8281-5.1641 5.1836-0.95312 2.3516-0.91016 4.9883 0.11328 7.3125-2.6914 2.3359-4.2266 5.7344-4.2031 9.3008zm21.602-8.7031-0.60156-0.60156v0.003906c0.34375-0.63281 0.61328-1.3047 0.80078-2 0.17578 0.62109 0.41016 1.2227 0.69922 1.8008zm19 20.801h-18.699v-11.699c0-2.6094 1.1289-5.0898 3.0977-6.8008 3.6602 3.0195 8.9453 3.0195 12.602 0 1.9453 1.7227 3.0391 4.2031 3 6.8008zm0.30078-20.801-0.89844-0.80078-0.003906 0.003906c0.29297-0.57812 0.52734-1.1797 0.70312-1.8008 0.1875 0.69531 0.45703 1.3672 0.79688 2zm17.699 16.703h-14v-7.6016c0.003906-1.9727-0.44141-3.9219-1.3008-5.6992l0.80078-0.80078c3.4258 2.7227 8.2734 2.7227 11.699 0 1.7617 1.5391 2.7812 3.7617 2.8008 6.1016zm-8.6016-27c2.1875 0 4.1562 1.3125 4.9922 3.332 0.83594 2.0195 0.37109 4.3398-1.1719 5.8867-1.543 1.543-3.8672 2.0039-5.8867 1.168-2.0156-0.83594-3.332-2.8047-3.332-4.9883 0-1.4336 0.57031-2.8047 1.582-3.8203 1.0117-1.0117 2.3867-1.5781 3.8164-1.5781zm-18.699-1.1016c2.4258 0 4.6172 1.4609 5.543 3.7031 0.92969 2.2422 0.41797 4.8242-1.3008 6.5391-1.7148 1.7148-4.2969 2.2305-6.5391 1.3008-2.2422-0.92969-3.7031-3.1172-3.7031-5.543 0-3.3125 2.6875-6 6-6zm-18.699 1.1016c2.1836 0 4.1523 1.3125 4.9883 3.332 0.83594 2.0195 0.375 4.3398-1.168 5.8867-1.5469 1.543-3.8672 2.0039-5.8867 1.168-2.0195-0.83594-3.332-2.8047-3.332-4.9883 0-2.9805 2.418-5.3984 5.3984-5.3984zm-8.6016 19c-0.007813-2.375 1.0156-4.6367 2.8008-6.2031 3.4258 2.7227 8.2773 2.7227 11.699 0l0.80078 0.80078c-0.89453 1.7695-1.375 3.7188-1.3984 5.6992v7.6992l-13.902 0.003906z"/>
 </g>
</svg>
