<?xml version="1.0" encoding="UTF-8"?>
<svg fill="#F08281" width="100pt" height="100pt" version="1.1" viewBox="0 0 100 100" xmlns="http://www.w3.org/2000/svg">
 <g>
  <path d="m87.871 50.809c-0.44141-1.8594-1.793-3.2891-3.6133-3.8359-0.007812-0.003906-0.015624-0.007812-0.023437-0.007812l-8.5195-2.6523-4.7031-14.496v-0.003906-0.003906c-0.71094-2.1641-2.4727-3.8359-4.7188-4.4727-0.003907-0.003907-0.011719-0.003907-0.015625-0.003907l-6.3281-1.8164c-0.003907 0-0.003907 0-0.007813-0.003906-0.003906 0-0.003906-0.003907-0.007812-0.003907-4.8281-1.3477-9.9766-1.5664-14.891-0.62891-4.9219 0.9375-9.6289 3.0352-13.609 6.0703-0.0625 0.046875-0.11719 0.097656-0.17188 0.14844l-5.7773 4.3984c-0.007813 0.003906-0.011719 0.007812-0.015625 0.011718-1.6562 1.207-2.5039 3.1406-2.2656 5.1953 0.23828 2.0859 1.5977 3.8672 3.5469 4.6562 0.69141 0.28125 1.4219 0.41797 2.1406 0.41797 1.2695 0 2.5195-0.42578 3.5391-1.2383h0.003906l8.0156-6.0625s0.003906 0 0.003906-0.003906c0 0 0.003906 0 0.003906-0.003906 1.4766-1.125 3.3945-1.5703 5.2539-1.2188 0.003906 0 0.007812 0 0.011718 0.003906 0.003906 0 0.007813 0.003906 0.011719 0.003906l0.97656 0.17188-5.9375 19.336v0.003906 0.003907c-0.23828 0.78516-0.57031 1.4492-1.0078 2.0312l-8.8867 11.719-9.7852-4.6758c-0.003906-0.003906-0.007812-0.003906-0.011719-0.003906-0.003906-0.003906-0.007812-0.003906-0.011719-0.007812-1.5352-0.71094-3.2461-0.80469-4.8242-0.26172-1.6094 0.55078-2.8984 1.7031-3.6328 3.2422-1.5039 3.1602-0.16406 6.9883 2.9922 8.5352 0.003906 0.003907 0.007812 0.003907 0.011719 0.003907 0.003906 0 0.003906 0.003906 0.007812 0.003906l12.797 6.1289h0.003906 0.003907c1.1797 0.5625 2.4609 0.84766 3.7461 0.84766 0.67969 0 1.3594-0.078126 2.0273-0.24219 1.9219-0.46875 3.6445-1.6016 4.8477-3.1953l10.91-14.41c0.015624-0.019531 0.03125-0.03125 0.039062-0.039062l13.176 8.6562v15.492 0.023438 0.023437c0.035157 1.6836 0.72266 3.2578 1.9258 4.4336 1.2031 1.1758 2.793 1.8203 4.4766 1.8203 3.4766 0 6.2578-2.7461 6.3359-6.2539v-0.023437-0.023438l-0.019531-17.652c0-2.9062-1.4609-5.6055-3.9102-7.2227h-0.003906l-0.003907-0.003906-9.8242-6.5273s-0.003906 0-0.003906-0.003906l-0.003907-0.003906c-0.035156-0.023438-0.058593-0.050782-0.070312-0.066406l2.8086-9.1719 0.53516 1.6406c0.66016 2.0117 2.2656 3.5781 4.2969 4.1992h0.003906 0.003906l11.383 3.4336c0.003906 0 0.007812 0.003906 0.011719 0.003906 0.51562 0.16016 1.0352 0.23828 1.5547 0.23828 1.3086 0 2.5898-0.5 3.6172-1.4492 1.4219-1.3164 2.0312-3.3125 1.582-5.2031zm-18.309 39.832c-1.1797 0-2.1211-0.91797-2.1523-2.0898v-16.125c0-1-0.51953-1.9609-1.3594-2.5156h-0.003906l-13.738-9.0234s-0.003906 0-0.003906-0.003907c-1.8945-1.2422-4.3672-0.80078-5.7539 1.0352l-10.906 14.41c-1.2734 1.6836-3.4961 2.2266-5.4023 1.3164l-12.777-6.1172c-1.0742-0.52734-1.5312-1.8203-1.0234-2.8867 0.49609-1.0391 1.7383-1.457 2.832-0.95312l10.688 5.1094c0.41016 0.19531 0.84766 0.28906 1.2773 0.28906 0.91797 0 1.8203-0.42188 2.4062-1.1914l0.003907-0.003906 9.4961-12.527v-0.003906c0.74219-0.98438 1.293-2.0781 1.6836-3.3477 0 0 0-0.003907 0.003906-0.003907l6.3281-20.605v-0.003906c0.26562-0.86719 0.16016-1.7891-0.28906-2.5273-0.4375-0.72656-1.1836-1.2188-2.0938-1.3906-0.003906 0-0.007813 0-0.011719-0.003907-0.003906 0-0.007813-0.003906-0.011719-0.003906l-2.2891-0.40234h-0.003906c-3.0312-0.5625-6.1562 0.17188-8.582 2.0117h-0.003906l-8.0156 6.0625c-0.011719 0.007813-0.023437 0.019531-0.03125 0.027344-0.011719 0.007813-0.023437 0.015625-0.035156 0.027344-0.41016 0.33984-0.95703 0.41797-1.4609 0.21875-0.50391-0.20312-0.85156-0.66406-0.91406-1.1992-0.0625-0.53906 0.13672-0.98828 0.57031-1.293 0.007813-0.007812 0.015625-0.015625 0.027344-0.019531 0.011719-0.007812 0.027344-0.015625 0.039063-0.027344l5.9258-4.5117c0.054687-0.039063 0.10156-0.085938 0.15234-0.12891 6.9922-5.2617 16.195-6.9961 24.652-4.6367l6.3164 1.8164c0.003907 0 0.007813 0 0.011719 0.003906 0.003907 0 0.003907 0 0.007813 0.003906 0.89062 0.24609 1.582 0.89062 1.8516 1.7148l4.9141 15.145v0.003906 0.003907c0.29297 0.89453 1.0352 1.6055 1.9844 1.9023 0.003906 0 0.007812 0.003907 0.011718 0.003907l9.0898 2.8281c0.007813 0.003906 0.019532 0.003906 0.027344 0.007812s0.011719 0.003906 0.019531 0.007813c0.39453 0.11328 0.62109 0.35156 0.71875 0.75781 0.09375 0.40234-0.03125 0.82422-0.33594 1.1016-0.32031 0.29688-0.66797 0.38672-1.0273 0.26953-0.007812-0.003906-0.015625-0.003906-0.019531-0.007813-0.007813-0.003906-0.011719-0.003906-0.019531-0.007812l-11.383-3.4375c-0.69531-0.21484-1.2695-0.76953-1.4961-1.457l-2.625-8.0156c-0.007812-0.019532-0.015625-0.039063-0.023437-0.0625-0.015625-0.039063-0.027344-0.078125-0.042969-0.11328-0.015625-0.03125-0.027344-0.0625-0.046875-0.09375-0.015625-0.03125-0.027344-0.058593-0.046875-0.089843-0.019531-0.035157-0.039063-0.066407-0.058594-0.10156-0.015625-0.023437-0.03125-0.050781-0.046875-0.074218-0.023437-0.03125-0.046875-0.066407-0.070312-0.097657-0.019532-0.023437-0.035156-0.046875-0.054688-0.070312-0.023437-0.027344-0.050781-0.054688-0.074218-0.085938-0.023438-0.023437-0.042969-0.046875-0.066407-0.070312-0.023437-0.023438-0.050781-0.046875-0.074219-0.070313-0.027343-0.023437-0.054687-0.046875-0.082031-0.070312-0.023437-0.019532-0.046875-0.035156-0.074219-0.054688-0.03125-0.023437-0.0625-0.046875-0.09375-0.066406-0.023437-0.015625-0.050781-0.03125-0.078124-0.046875-0.03125-0.019531-0.066407-0.039063-0.10156-0.058594-0.03125-0.015625-0.0625-0.03125-0.09375-0.042969-0.03125-0.015624-0.0625-0.027343-0.09375-0.042968-0.039063-0.015625-0.078125-0.027344-0.11719-0.042969-0.019532-0.007813-0.039063-0.015625-0.0625-0.023437-0.007813-0.003907-0.011719-0.003907-0.019532-0.003907-0.046875-0.011719-0.089844-0.023437-0.13672-0.035156-0.023438-0.003906-0.046876-0.011719-0.070313-0.015625-0.042969-0.007812-0.089844-0.015625-0.13672-0.019531-0.023437-0.003907-0.050781-0.007813-0.074218-0.011719-0.039063-0.003906-0.078126-0.003906-0.12109-0.003906-0.03125 0-0.058594-0.003906-0.089844-0.003906s-0.066406 0.003906-0.097656 0.003906c-0.035156 0.003906-0.074219 0.003906-0.10938 0.007812-0.027344 0.003906-0.054688 0.007813-0.082031 0.011719-0.042969 0.007813-0.085938 0.011719-0.12891 0.019531-0.023437 0.003906-0.050781 0.011719-0.074219 0.019532-0.042968 0.011718-0.085937 0.023437-0.12891 0.035156-0.007812 0.003906-0.011718 0.003906-0.019531 0.003906-0.023437 0.007812-0.042969 0.015625-0.066406 0.023438-0.035157 0.015624-0.074219 0.027343-0.10938 0.042968s-0.066406 0.03125-0.097656 0.046875c-0.027344 0.015625-0.058594 0.027344-0.085938 0.042969-0.035156 0.019531-0.070312 0.039062-0.10547 0.0625-0.023437 0.015625-0.046875 0.027344-0.070312 0.046875-0.035157 0.023437-0.066407 0.046875-0.097657 0.070313-0.023437 0.015624-0.046874 0.035156-0.066406 0.054687-0.027344 0.023437-0.058594 0.050781-0.085937 0.074219-0.023438 0.023437-0.046875 0.042968-0.070313 0.066406-0.023437 0.023438-0.046875 0.050781-0.070312 0.074219-0.023438 0.027343-0.046875 0.054687-0.070313 0.082031-0.019531 0.023438-0.039062 0.050781-0.054687 0.074219-0.023438 0.03125-0.046875 0.0625-0.066406 0.09375-0.015626 0.023437-0.03125 0.050781-0.046876 0.078125-0.019531 0.03125-0.039062 0.066406-0.058593 0.10156-0.015625 0.03125-0.03125 0.058594-0.042969 0.089844-0.015625 0.03125-0.027344 0.0625-0.042969 0.09375-0.015625 0.039062-0.027343 0.078125-0.042969 0.11328-0.007812 0.019531-0.015624 0.039063-0.023437 0.0625l-4.7812 15.621v0.003906c-0.55078 1.8047 0.17578 3.7344 1.7969 4.8125h0.003906l0.003906 0.003907s0.003907 0 0.003907 0.003906l9.8242 6.5273s0.003906 0 0.003906 0.003906c0 0 0.003906 0 0.003906 0.003906 1.2578 0.82812 2.0078 2.2031 2.0078 3.6797l0.011719 17.621c-0.03125 1.1914-0.92578 2.0898-2.082 2.0898z"/>
  <path d="m66.512 22.762c4.8672 0 8.8242-3.9609 8.8242-8.8242 0-4.8672-3.9609-8.8242-8.8242-8.8242-4.8672 0-8.8242 3.9609-8.8242 8.8242-0.003906 4.8672 3.957 8.8242 8.8242 8.8242zm0-13.402c2.5234 0 4.5742 2.0508 4.5742 4.5742 0 2.5234-2.0508 4.5742-4.5742 4.5742-2.5234 0-4.5742-2.0508-4.5742-4.5742-0.003906-2.5195 2.0508-4.5742 4.5742-4.5742z"/>
 </g>
</svg>
