<?xml version="1.0" encoding="UTF-8"?>
<svg fill="#F08281" width="100pt" height="100pt" version="1.1" viewBox="0 0 100 100" xmlns="http://www.w3.org/2000/svg">
 <g>
  <path d="m50 96.316l-1-0.60938c-2.125-1.293-21.238-13.395-38.316-40.242-8.7969-13.824-7.5352-25.191-4.9297-32.293 3.2656-8.9023 10.617-16.086 19.18-18.742 7.9492-2.4688 16.992 1.2461 25.066 10.203 8.0742-8.957 17.121-12.668 25.066-10.203 8.5664 2.6562 15.914 9.8398 19.184 18.742 2.6055 7.1016 3.8672 18.469-4.9297 32.293-17.078 26.848-36.195 38.949-38.316 40.242zm-20.113-88.785c-1.3047 0-2.5781 0.1875-3.8125 0.57031-7.4453 2.3086-13.848 8.5898-16.711 16.395-2.3086 6.2891-3.3867 16.406 4.5625 28.906 15.047 23.652 31.57 35.449 36.07 38.387 4.5-2.9375 21.027-14.734 36.07-38.387 7.9531-12.5 6.8711-22.617 4.5664-28.906-2.8633-7.8047-9.2656-14.086-16.711-16.395-6.875-2.1289-15.051 1.7695-22.441 10.695l-1.4805 1.7891-1.4805-1.7891c-6.0664-7.3242-12.664-11.266-18.633-11.266z"/>
  <path d="m50.242 84.051l-10.082-32.262-6.1641 15.422h-28.227v-3.8477h25.621l9.2148-23.043 9.1523 29.277 11.355-47.316 11.363 29.543h21.754v3.8477h-24.398l-7.8672-20.457z"/>
 </g>
</svg>
