<?xml version="1.0" encoding="UTF-8"?>
<svg fill="#F08281" width="100pt" height="100pt" version="1.1" viewBox="0 0 100 100" xmlns="http://www.w3.org/2000/svg">
 <g>
  <path d="m95.586 20.672h-82.23c-0.8125 0-1.4688 0.66016-1.4688 1.4688v4.4922h-3c-0.8125 0-1.4688 0.65625-1.4688 1.4688v4.4883h-3c-0.8125 0-1.4688 0.65625-1.4688 1.4688v43.789c0 0.8125 0.65625 1.4688 1.4688 1.4688h82.23c0.8125 0 1.4688-0.65625 1.4688-1.4688v-4.4883h3c0.8125 0 1.4688-0.65625 1.4688-1.4688v-4.4922h3c0.8125 0 1.4688-0.65625 1.4688-1.4688v-43.785c0-0.8125-0.65625-1.4727-1.4688-1.4727zm-10.414 55.715h-79.285v-40.852h79.289zm4.4727-5.9609h-1.5312v-36.359c0-0.8125-0.65625-1.4688-1.4688-1.4688l-76.289-0.003906v-3.0195h79.289zm4.4688-5.9609h-1.5312l0.003907-36.359c0-0.8125-0.65625-1.4688-1.4688-1.4688h-76.289v-3.0195h79.289z"/>
  <path d="m10.02 68.121c2.2773 0 4.1328 1.8555 4.1328 4.1328 0 0.8125 0.65625 1.4688 1.4688 1.4688h59.812c0.8125 0 1.4688-0.65625 1.4688-1.4688 0-2.2773 1.8555-4.1328 4.1328-4.1328 0.8125 0 1.4688-0.65625 1.4688-1.4688l0.007813-21.379c0-0.8125-0.65625-1.4688-1.4688-1.4688-2.2773 0-4.1328-1.8555-4.1328-4.1328 0-0.8125-0.65625-1.4688-1.4688-1.4688l-59.82-0.003906c-0.8125 0-1.4688 0.65625-1.4688 1.4688 0 2.2773-1.8555 4.1328-4.1328 4.1328-0.8125 0-1.4688 0.65625-1.4688 1.4688v21.375c-0.003906 0.81641 0.65625 1.4766 1.4688 1.4766zm1.4688-21.531c2.7227-0.57812 4.8711-2.7266 5.4492-5.4492h57.18c0.57812 2.7227 2.7266 4.8711 5.4492 5.4492v18.742c-2.7227 0.57812-4.8711 2.7266-5.4492 5.4492h-57.18c-0.57812-2.7227-2.7266-4.8711-5.4492-5.4492z"/>
  <path d="m37.305 51.496c0 0.8125 0.65625 1.4688 1.4688 1.4688h8.5469c-0.93359 1.418-3.0625 1.7891-4.75 1.8281h-1.6406c-0.54688 0-1.0508 0.30469-1.3047 0.78906s-0.21484 1.0703 0.097656 1.5195l6.5859 9.4609c0.28516 0.41016 0.74219 0.62891 1.207 0.62891 0.28906 0 0.58203-0.085937 0.83984-0.26562 0.66797-0.46484 0.83203-1.3789 0.36719-2.0469l-5.0195-7.2148c4.168-0.38281 5.8789-2.3359 6.5781-3.9766 0.10156-0.23828 0.17578-0.48438 0.24219-0.73047h1.3008c0.8125 0 1.4688-0.65625 1.4688-1.4688s-0.65625-1.4688-1.4688-1.4688h-1.1992c-0.003906-0.007812-0.003906-0.019531-0.003906-0.027343-0.21094-0.91797-0.61719-1.6836-1.1133-2.3281h2.3164c0.8125 0 1.4688-0.65625 1.4688-1.4688s-0.65625-1.4688-1.4688-1.4688h-13.047c-0.8125 0-1.4688 0.65625-1.4688 1.4688s0.65625 1.4688 1.4688 1.4688h5.7344c0.52734 0.18359 2.2852 0.89453 3 2.3555h-8.7344c-0.8125 0.003907-1.4727 0.66016-1.4727 1.4766z"/>
  <path d="m24.57 55.961c0 3.9688-5.9531 3.9688-5.9531 0s5.9531-3.9688 5.9531 0"/>
  <path d="m72.441 55.961c0 3.9688-5.9531 3.9688-5.9531 0s5.9531-3.9688 5.9531 0"/>
 </g>
</svg>
