<?xml version="1.0" encoding="UTF-8"?>
<svg fill="#F08281" width="100pt" height="100pt" version="1.1" viewBox="0 0 100 100" xmlns="http://www.w3.org/2000/svg">
 <g>
  <path d="m77.5 43.969h-16.422c-3.0195 0-5.4688-2.4492-5.4688-5.4688v-16.422c0-3.0195 2.4492-5.4688 5.4688-5.4688h16.422c3.0195 0 5.4688 2.4492 5.4688 5.4688v16.422c0 1.4492-0.57422 2.8398-1.6016 3.8672-1.0273 1.0273-2.418 1.6016-3.8672 1.6016zm-16.422-22.672c-0.42969 0-0.78125 0.35156-0.78125 0.78125v16.422c0 0.20703 0.082031 0.40625 0.23047 0.55078 0.14453 0.14844 0.34375 0.23047 0.55078 0.23047h16.422c0.20703 0 0.40625-0.082031 0.55078-0.23047 0.14844-0.14453 0.23047-0.34375 0.23047-0.55078v-16.422c0-0.20703-0.082031-0.40625-0.23047-0.55078-0.14453-0.14844-0.34375-0.23047-0.55078-0.23047z"/>
  <path d="m38.922 43.969h-16.422c-3.0195 0-5.4688-2.4492-5.4688-5.4688v-16.422c0-3.0195 2.4492-5.4688 5.4688-5.4688h16.422c3.0195 0 5.4688 2.4492 5.4688 5.4688v16.422c0 1.4492-0.57422 2.8398-1.6016 3.8672-1.0273 1.0273-2.418 1.6016-3.8672 1.6016zm-16.422-22.672c-0.42969 0-0.78125 0.35156-0.78125 0.78125v16.422c0 0.20703 0.082031 0.40625 0.23047 0.55078 0.14453 0.14844 0.34375 0.23047 0.55078 0.23047h16.422c0.20703 0 0.40625-0.082031 0.55078-0.23047 0.14844-0.14453 0.23047-0.34375 0.23047-0.55078v-16.422c0-0.20703-0.082031-0.40625-0.23047-0.55078-0.14453-0.14844-0.34375-0.23047-0.55078-0.23047z"/>
  <path d="m77.5 83.406h-16.422c-3.0195 0-5.4688-2.4492-5.4688-5.4688v-16.438c0-3.0195 2.4492-5.4688 5.4688-5.4688h16.422c3.0195 0 5.4688 2.4492 5.4688 5.4688v16.438c0 1.4492-0.57422 2.8398-1.6016 3.8672-1.0273 1.0273-2.418 1.6016-3.8672 1.6016zm-16.422-22.688c-0.42969 0-0.78125 0.35156-0.78125 0.78125v16.438c0 0.20703 0.082031 0.40625 0.23047 0.55078 0.14453 0.14844 0.34375 0.23047 0.55078 0.23047h16.422c0.20703 0 0.40625-0.082031 0.55078-0.23047 0.14844-0.14453 0.23047-0.34375 0.23047-0.55078v-16.438c0-0.20703-0.082031-0.40625-0.23047-0.55078-0.14453-0.14844-0.34375-0.23047-0.55078-0.23047z"/>
  <path d="m38.922 83.406h-16.422c-3.0195 0-5.4688-2.4492-5.4688-5.4688v-16.438c0-3.0195 2.4492-5.4688 5.4688-5.4688h16.422c3.0195 0 5.4688 2.4492 5.4688 5.4688v16.438c0 1.4492-0.57422 2.8398-1.6016 3.8672-1.0273 1.0273-2.418 1.6016-3.8672 1.6016zm-16.422-22.688c-0.42969 0-0.78125 0.35156-0.78125 0.78125v16.438c0 0.20703 0.082031 0.40625 0.23047 0.55078 0.14453 0.14844 0.34375 0.23047 0.55078 0.23047h16.422c0.20703 0 0.40625-0.082031 0.55078-0.23047 0.14844-0.14453 0.23047-0.34375 0.23047-0.55078v-16.438c0-0.20703-0.082031-0.40625-0.23047-0.55078-0.14453-0.14844-0.34375-0.23047-0.55078-0.23047z"/>
 </g>
</svg>
