<?xml version="1.0" encoding="UTF-8"?>
<svg fill="#FF7172" width="100pt" height="100pt" version="1.1" viewBox="0 0 100 100" xmlns="http://www.w3.org/2000/svg">
 <g>
  <path d="m17.832 0c-2.7109 0-4.8945 2.1836-4.8945 4.8945v90.211c0 2.7109 2.1836 4.8945 4.8945 4.8945h64.336c2.7109 0 4.8945-2.1836 4.8945-4.8945v-90.211c0-2.7109-2.1836-4.8945-4.8945-4.8945zm-0.69922 5.6602h65.734v88.68h-65.734z"/>
  <path d="m27.973 32.621h44.055c0.86719 0 1.5742 0.86719 1.5742 1.5742v1.5742c0 0.86719-0.70312 1.5742-1.5742 1.5742h-44.055c-0.86719 0-1.5742-0.86719-1.5742-1.5742v-1.5742c0-0.86719 0.70312-1.5742 1.5742-1.5742z"/>
  <path d="m27.973 47.043h44.055c0.86719 0 1.5742 0.86719 1.5742 1.5742v1.5742c0 0.86719-0.70312 1.5742-1.5742 1.5742h-44.055c-0.86719 0-1.5742-0.86719-1.5742-1.5742v-1.5742c0-0.86719 0.70312-1.5742 1.5742-1.5742z"/>
  <path d="m27.973 61.465h44.055c0.86719 0 1.5742 0.86719 1.5742 1.5742v1.5742c0 0.86719-0.70312 1.5742-1.5742 1.5742h-44.055c-0.86719 0-1.5742-0.86719-1.5742-1.5742v-1.5742c0-0.86719 0.70312-1.5742 1.5742-1.5742z"/>
  <path d="m48.25 75.891h23.777c0.86719 0 1.5742 0.86719 1.5742 1.5742v1.5742c0 0.86719-0.70312 1.5742-1.5742 1.5742h-23.777c-0.86719 0-1.5742-0.86719-1.5742-1.5742v-1.5742c0-0.86719 0.70312-1.5742 1.5742-1.5742z"/>
  <path d="m26.133 0.15625v23.664l7.2852-7.2852 7.4258 7.4258v-23.805z"/>
 </g>
</svg>
