<?xml version="1.0" encoding="UTF-8"?>
<svg fill="#F08281" width="100pt" height="100pt" version="1.1" viewBox="0 0 100 100" xmlns="http://www.w3.org/2000/svg">
 <g>
  <path d="m76.703 48.918c0.015625-0.003907 0.027344-0.007813 0.042969-0.015625 0.007812-0.003906 0.015625-0.007813 0.023437-0.011719 0.03125-0.011719 0.0625-0.027344 0.09375-0.042969 0.007813-0.003906 0.011719-0.007812 0.019531-0.011718 0.003907-0.003907 0.011719-0.007813 0.015626-0.011719 0.011718-0.007813 0.027343-0.015625 0.039062-0.023438 0.023438-0.015625 0.042969-0.03125 0.0625-0.046875 0.011719-0.011718 0.023438-0.019531 0.035156-0.03125 0.007813-0.007812 0.019532-0.015625 0.027344-0.023437 0.007812-0.003907 0.011719-0.011719 0.015625-0.019531 0.023437-0.023438 0.046875-0.046876 0.066406-0.074219 0.003907-0.007813 0.007813-0.015625 0.015625-0.023438 0.003906-0.003906 0.003906-0.007812 0.007813-0.011719 0.011719-0.015624 0.019531-0.027343 0.027343-0.042968 0.007813-0.011719 0.015626-0.019532 0.023438-0.03125 0.003906-0.007813 0.007812-0.015625 0.011719-0.027344 0.011719-0.019531 0.019531-0.039062 0.03125-0.058594 0.011719-0.023437 0.019531-0.042968 0.027343-0.066406 0.007813-0.019531 0.015626-0.035156 0.019532-0.054688 0.007812-0.019531 0.011718-0.035156 0.015625-0.054687 0.007812-0.023437 0.011719-0.046875 0.015625-0.070313 0.003906-0.019531 0.007812-0.039062 0.007812-0.058593 0.003906-0.019531 0.003906-0.039063 0.003906-0.058594v-0.070313c0-0.019531 0-0.039062-0.003906-0.0625 0-0.019531-0.003906-0.042968-0.007812-0.0625 0-0.011718 0-0.023437-0.003906-0.035156-0.78906-4.1953-2.5977-7.0938-5.3789-8.6172-4.418-2.4258-9.5859-0.40234-9.8047-0.3125-0.019532 0.007812-0.035156 0.019531-0.054688 0.027343-0.03125 0.015626-0.0625 0.03125-0.09375 0.050782-0.027344 0.015625-0.050781 0.035156-0.074218 0.054687-0.027344 0.019531-0.050782 0.039063-0.074219 0.058594-0.023438 0.023437-0.042969 0.046875-0.066407 0.070313-0.019531 0.023437-0.039062 0.046874-0.058593 0.070312-0.019531 0.027344-0.035157 0.050781-0.050781 0.078125-0.015626 0.027344-0.03125 0.054687-0.046876 0.082031-0.011718 0.027344-0.023437 0.054688-0.035156 0.085938-0.011718 0.03125-0.019531 0.058594-0.027344 0.089844-0.007812 0.03125-0.011718 0.0625-0.015624 0.09375-0.003907 0.03125-0.007813 0.0625-0.011719 0.089843 0 0.035157 0 0.070313 0.003906 0.10547v0.0625c0.027344 0.23438 0.73828 5.7383 4.9922 8.4453 1.5039 0.96094 3.2422 1.4375 5.1992 1.4375 1.5195 0 3.168-0.28906 4.9414-0.86719 0.011718 0.003906 0.015624 0 0.023437-0.003906zm-8.625-4.6992 5.7734 3.418c-2.4805 0.44531-4.5781 0.14062-6.2539-0.92188-2.625-1.6641-3.625-4.8047-3.9609-6.2617 1.4336-0.40625 4.6523-1.0391 7.3828 0.45703 1.7422 0.95703 3.0234 2.6523 3.8242 5.0469l-5.7734-3.418c-0.46484-0.27344-1.0625-0.12109-1.3359 0.34375-0.27344 0.46484-0.12109 1.0625 0.34375 1.3359z"/>
  <path d="m96.359 39.652c-0.003906-0.03125-0.007813-0.0625-0.015625-0.09375s-0.019531-0.058594-0.027344-0.089844c-0.011718-0.03125-0.019531-0.058594-0.035156-0.085938-0.011719-0.027343-0.027344-0.054687-0.042969-0.078124-0.015625-0.027344-0.035156-0.058594-0.054687-0.082032-0.015625-0.023437-0.035156-0.042968-0.054688-0.066406-0.023437-0.027344-0.046875-0.050781-0.070312-0.074219-0.019532-0.019531-0.042969-0.035156-0.066406-0.054687-0.027344-0.019532-0.054688-0.042969-0.085938-0.0625-0.023438-0.015625-0.050781-0.027344-0.078125-0.042969-0.023437-0.011719-0.042969-0.023437-0.066406-0.035156-0.21875-0.085938-5.3867-2.1094-9.8047 0.3125-2.7812 1.5234-4.5898 4.4258-5.3789 8.6172-0.003906 0.011719 0 0.023438-0.003906 0.035156-0.003907 0.019532-0.007813 0.042969-0.007813 0.0625 0 0.019532 0 0.039063-0.003906 0.0625v0.070313c0 0.019531 0.003906 0.039063 0.003906 0.058594 0.003906 0.019531 0.007813 0.039062 0.007813 0.058593 0.003906 0.023438 0.007812 0.046876 0.015625 0.070313 0.003906 0.019531 0.007812 0.039063 0.015625 0.054687 0.003906 0.019532 0.011719 0.035157 0.019531 0.054688 0.007812 0.023438 0.015625 0.042969 0.027344 0.066406 0.007812 0.019532 0.019531 0.039063 0.03125 0.058594 0.003906 0.007812 0.007812 0.015625 0.011718 0.027344 0.007813 0.011718 0.015626 0.019531 0.023438 0.03125 0.007812 0.015625 0.019531 0.027344 0.027344 0.042968 0.003906 0.003907 0.003906 0.007813 0.007812 0.011719 0.003906 0.007813 0.007813 0.015625 0.015625 0.023438 0.023438 0.027343 0.046875 0.050781 0.070313 0.078125l0.015625 0.015625c0.007812 0.007812 0.019531 0.015625 0.027343 0.023437 0.011719 0.011719 0.023438 0.019532 0.035157 0.03125 0.019531 0.015625 0.042969 0.035156 0.0625 0.046875 0.011719 0.007813 0.023437 0.015625 0.039062 0.023438 0.007813 0.003906 0.011719 0.007812 0.019531 0.011719 0.007813 0.003906 0.011719 0.007812 0.019532 0.011718l0.09375 0.046875c0.007812 0.003907 0.011718 0.007813 0.019531 0.007813 0.015625 0.003906 0.027344 0.007812 0.042969 0.015625 0.007812 0.003906 0.011718 0.007812 0.019531 0.007812 1.7734 0.57812 3.4219 0.86719 4.9414 0.86719 1.957 0 3.6953-0.48047 5.2031-1.4375 4.25-2.7109 4.9609-8.2148 4.9922-8.4453 0.003906-0.019531 0-0.039062 0-0.0625 0-0.035156 0.003906-0.070312 0.003906-0.10547-0.007812-0.03125-0.011719-0.058594-0.015625-0.089844zm-6.043 7.0664c-1.6758 1.0625-3.7734 1.3672-6.2539 0.92188l5.7734-3.418c0.46484-0.27344 0.61719-0.875 0.34375-1.3359-0.27344-0.46484-0.875-0.61719-1.3398-0.34375l-5.7734 3.418c0.80078-2.3906 2.0781-4.082 3.8164-5.0391 2.7188-1.5 5.9531-0.86719 7.3945-0.46094-0.33594 1.4531-1.3398 4.5938-3.9609 6.2578z"/>
  <path d="m79.934 33.609v-2.3633c2.1172-0.066406 3.8203-1.8047 3.8203-3.9336 0-2.1719-1.7695-3.9414-3.9414-3.9414h-1.7109c-1.0977 0-1.9883-0.89062-1.9883-1.9883 0-1.0977 0.89062-1.9883 1.9883-1.9883h4.6758c0.53906 0 0.97656-0.4375 0.97656-0.97656 0-0.53906-0.4375-0.97656-0.97656-0.97656h-2.8438v-2.3555c0-0.53906-0.4375-0.97656-0.97656-0.97656-0.53906 0-0.97656 0.4375-0.97656 0.97656v2.3594c-2.1172 0.066407-3.8203 1.8047-3.8203 3.9375 0 2.1719 1.7695 3.9414 3.9414 3.9414h1.7109c1.0977 0 1.9883 0.89062 1.9883 1.9883s-0.89062 1.9883-1.9883 1.9883h-4.6758c-0.53906 0-0.97656 0.4375-0.97656 0.97656 0 0.53906 0.4375 0.97656 0.97656 0.97656h2.8438v2.3555c0 0.53906 0.4375 0.97656 0.97656 0.97656 0.53906 0 0.97656-0.4375 0.97656-0.97656z"/>
  <path d="m85.438 51.773h-5.3242v-13.902c6.9453-0.58984 12.418-6.4258 12.418-13.52 0-7.4844-6.0898-13.57-13.57-13.57-7.4844 0-13.57 6.0898-13.57 13.57 0 7.2148 5.6602 13.133 12.773 13.547v13.875h-4.2422c-0.53906 0-0.97656 0.4375-0.97656 0.97656v35.5c0 0.53906 0.4375 0.97656 0.97656 0.97656h11.52c0.53906 0 0.97656-0.4375 0.97656-0.97656l-0.003907-35.5c0-0.54297-0.4375-0.97656-0.97656-0.97656zm-18.098-27.426c0-6.4062 5.2109-11.617 11.617-11.617s11.617 5.2109 11.617 11.617-5.2109 11.617-11.617 11.617c-6.4062 0.003906-11.617-5.2109-11.617-11.617zm17.121 62.922h-9.5664v-33.543h9.5664z"/>
  <path d="m66.363 57.742h-11.52c-0.53906 0-0.97656 0.4375-0.97656 0.97656v29.531c0 0.53906 0.4375 0.97656 0.97656 0.97656h11.52c0.53906 0 0.97656-0.4375 0.97656-0.97656v-29.531c0-0.53906-0.4375-0.97656-0.97656-0.97656zm-0.97656 29.527h-9.5664v-27.574h9.5664z"/>
  <path d="m47.289 63.738h-11.52c-0.53906 0-0.97656 0.4375-0.97656 0.97656v23.531c0 0.53906 0.4375 0.97656 0.97656 0.97656h11.52c0.53906 0 0.97656-0.4375 0.97656-0.97656v-23.531c0-0.53906-0.4375-0.97656-0.97656-0.97656zm-0.97656 23.531h-9.5664v-21.578h9.5664z"/>
  <path d="m28.211 72.504h-11.52c-0.53906 0-0.97656 0.4375-0.97656 0.97656v14.766c0 0.53906 0.4375 0.97656 0.97656 0.97656h11.52c0.53906 0 0.97656-0.4375 0.97656-0.97656v-14.766c0-0.53906-0.4375-0.97656-0.97656-0.97656zm-0.97656 14.766h-9.5664v-12.812h9.5664z"/>
  <path d="m17.965 19.41c0.25 0 0.5-0.09375 0.69141-0.28516 0.38281-0.38281 0.38281-1 0-1.3828l-6.6875-6.6875c-0.042969-0.042969-0.089844-0.082032-0.14062-0.11719-0.023437-0.015625-0.050781-0.027344-0.074219-0.039062-0.03125-0.015626-0.058594-0.035157-0.09375-0.046876-0.03125-0.011718-0.0625-0.019531-0.097656-0.03125-0.027344-0.007812-0.054688-0.019531-0.085938-0.023437-0.058593-0.011719-0.12109-0.019531-0.17969-0.019531h-0.007813-0.007812c-0.0625 0-0.12109 0.007812-0.17969 0.019531-0.03125 0.007813-0.058593 0.015625-0.085937 0.023437-0.03125 0.007813-0.066406 0.015626-0.097656 0.03125-0.03125 0.011719-0.0625 0.03125-0.09375 0.046876-0.023438 0.015624-0.050781 0.023437-0.074219 0.039062-0.050781 0.035156-0.097656 0.074219-0.14062 0.11719-0.003906 0.003906-0.003906 0.003906-0.007813 0.007812l-6.6875 6.6797c-0.38281 0.38281-0.38281 1 0 1.3828 0.38281 0.38281 1 0.38281 1.3828 0l5.0117-5.0117v11.801l-4.8516-0.003906c-0.53906 0-0.97656 0.4375-0.97656 0.97656 0 0.53906 0.4375 0.97656 0.97656 0.97656h4.8516v4.7695h-2.7695c-0.53906 0-0.97656 0.4375-0.97656 0.97656s0.4375 0.97656 0.97656 0.97656h2.7656v4.7695l-4.8477 0.003906c-0.53906 0-0.97656 0.4375-0.97656 0.97656 0 0.53906 0.4375 0.97656 0.97656 0.97656h4.8516v4.7695h-2.7695c-0.53906 0-0.97656 0.4375-0.97656 0.97656 0 0.53906 0.4375 0.97656 0.97656 0.97656h2.7656v4.7695h-4.8477c-0.53906 0-0.97656 0.4375-0.97656 0.97656s0.4375 0.97656 0.97656 0.97656h4.8516v4.7695h-2.7695c-0.53906 0-0.97656 0.4375-0.97656 0.97656 0 0.53906 0.4375 0.97656 0.97656 0.97656h2.7656v4.7695h-4.8477c-0.53906 0-0.97656 0.4375-0.97656 0.97656 0 0.53906 0.4375 0.97656 0.97656 0.97656h4.8516v4.7695h-2.7695c-0.53906 0-0.97656 0.4375-0.97656 0.97656 0 0.53906 0.4375 0.97656 0.97656 0.97656h2.7656v4.7695h-4.8477c-0.53906 0-0.97656 0.4375-0.97656 0.97656s0.4375 0.97656 0.97656 0.97656h4.8516v6.5977c0 0.53906 0.4375 0.97656 0.97656 0.97656 0.53906 0 0.97656-0.4375 0.97656-0.97656v-74.137l5.0117 5.0117c0.19141 0.19141 0.44141 0.28906 0.69141 0.28906z"/>
 </g>
</svg>
